<?xml version="1.0" encoding="UTF-8" standalone="no"?>
<!-- Created with Inkscape (http://www.inkscape.org/) -->

<svg
   width="210mm"
   height="297mm"
   viewBox="0 0 210 297"
   version="1.1"
   id="svg1"
   xmlnsSvg="http://www.w3.org/2000/svg"
   xmlns="http://www.w3.org/2000/svg">
  <defs
     id="defs1" />
  <g
     id="layer1">
    <path
       style="display:none;fill:#ffd6bf;fill-opacity:1;stroke:#870700;stroke-width:0.899999;stroke-opacity:0"
       d="m 236.7973,319.07433 -2.00676,-84.78547 38.12838,33.61317 15.05068,-4.5152 8.52871,28.09459 43.64696,-61.20608 60.2027,74.25 19.06419,-43.64696 4.01351,8.52872 40.63683,-18.5625 V 463.56081 H 231.78041 Z"
       id="path5" />
    <path
       style="display:inline;fill:#ef473a;fill-opacity:1;stroke:#870700;stroke-width:0.899999;stroke-opacity:0"
       d="m -8.528716,163.55068 c 0,0 46.820007,-24.07012 71.239863,-19.56589 16.577418,3.05771 19.732823,28.47648 41.138513,29.59967 21.40569,1.12319 42.41214,-41.22027 67.22635,-39.63344 24.81421,1.58683 56.18919,43.64696 56.18919,43.64696 v 130.94088 c 0,0 -241.814186,146.49323 -235.793916,-144.98818 z"
       id="path4" />
    <path
       style="display:none;fill:#cb2d3e;fill-opacity:1;stroke:#870700;stroke-width:0.899999;stroke-opacity:0"
       d="m -0.50168918,168.56756 c 0,0 54.46646018,-9.17908 80.27026918,-8.52872 25.80381,0.65036 73.24662,11.53886 73.24662,11.53886 l 67.72804,-15.05068 V 304.02365 H -7.5253378 V 167.56418 Z"
       id="path3" />
    <path
       style="display:none;fill:#870734;fill-opacity:1;stroke:#870700;stroke-width:0.899999;stroke-opacity:0"
       d="m -3.5118244,174.58784 c 50.6706074,-8.02703 63.2468854,-0.78154 90.3040524,-4.01351 27.057162,-3.23197 50.218832,-15.97778 71.741552,-14.0473 21.52272,1.93048 52.67737,20.56925 52.67737,20.56925 v 124.9206 H -3.0101351 Z"
       id="path2" />
    <path
       style="display:none;fill:#30122d;fill-opacity:1;stroke:#000000;stroke-width:0.9;stroke-dasharray:none;stroke-opacity:0"
       d="m 209.70608,176.0929 c -23.57939,-4.01351 -28.08946,-2.7596 -47.66047,-2.50845 -19.57101,0.25115 -37.87513,9.28082 -61.70778,13.54561 -23.832651,4.26479 -34.874857,-6.791 -53.680737,-10.53547 -18.80588,-3.74447 -13.043917,1.50508 -47.6604714,-7.02365 V 299.00676 H 210.20777 Z"
       id="path1" />
  </g>
</svg>
